<?xml version="1.0" encoding="UTF-8" standalone="no"?>
<svg
   version="1.1"
   x="0"
   y="0"
   width="300"
   height="650"
   viewBox="0 0 300 650"
   id="svg1"
   sodipodi:docname="peace_heart.svg"
   inkscape:version="1.4 (e7c3feb100, 2024-10-09)"
   xmlns:inkscape="http://www.inkscape.org/namespaces/inkscape"
   xmlns:sodipodi="http://sodipodi.sourceforge.net/DTD/sodipodi-0.dtd"
   xmlns="http://www.w3.org/2000/svg"
   xmlns:svg="http://www.w3.org/2000/svg">
  <defs
     id="defs1" />
  <sodipodi:namedview
     id="namedview1"
     pagecolor="#ffffff"
     bordercolor="#000000"
     borderopacity="0.25"
     inkscape:showpageshadow="2"
     inkscape:pageopacity="0.0"
     inkscape:pagecheckerboard="0"
     inkscape:deskcolor="#d1d1d1"
     inkscape:zoom="1.5713484"
     inkscape:cx="-44.229529"
     inkscape:cy="311.19769"
     inkscape:window-width="3440"
     inkscape:window-height="1371"
     inkscape:window-x="0"
     inkscape:window-y="0"
     inkscape:window-maximized="1"
     inkscape:current-layer="svg1" />
  <g
     id="Layer_1"
     transform="matrix(-1,0,0,1,279.15242,123.3)"
     style="fill:#4ecac1;fill-opacity:1">
    <path
       d="m 44.882,259.889 c 1.277,0.55 2.707,0.812 4.159,0.693 1.768,-0.12 3.552,-0.91 4.841,-2.219 1.309,-1.299 2.064,-3.052 2.286,-4.783 0.189,-1.419 0.041,-2.83 -0.343,-4.15 0.303,-0.025 0.578,-0.039 0.781,-0.039 0.314,0 0.494,0.019 0.502,0.019 3.969,0.531 12.468,11.019 12.274,16.303 -0.102,2.761 -1.727,5.897 -4.241,8.181 -1.979,1.798 -4.176,2.769 -6.031,2.657 -2.899,-0.169 -8.739,-4.096 -12.254,-8.237 -1.745,-2.056 -2.675,-3.907 -2.552,-5.076 0.125,-1.191 0.323,-2.303 0.578,-3.349 m 4.757,-8.045 c 2.129,-1.678 4.362,-2.219 5.827,-2.385 -0.115,1.345 -0.287,2.631 -0.646,3.836 -0.435,1.473 -1.167,2.793 -2.185,3.82 -1.018,1.022 -2.325,1.766 -3.809,2.112 -1.215,0.296 -2.512,0.362 -3.862,0.309 0.878,-3.355 2.442,-5.935 4.675,-7.692 m 9.354,26.697 c 0.13,0.007 0.26,0.011 0.392,0.011 2.29,0 4.852,-1.146 7.097,-3.184 2.895,-2.632 4.77,-6.304 4.891,-9.581 0.236,-6.436 -9.1,-17.697 -14.002,-18.351 -1.272,-0.169 -5.366,0.008 -8.965,2.841 -3.432,2.703 -5.479,6.992 -6.083,12.752 -0.233,2.223 1.51,4.802 3.014,6.574 3.509,4.135 9.834,8.713 13.656,8.938 m 58.36,-219.131 -0.076,0.156 c 0.027,-0.184 0.102,-0.295 0.091,-0.259 l 0.021,0.021 -0.036,0.082 m 37.841,227.05 0.003,-0.004 0.004,0.006 z M 245.601,35.777 c -4.843,30.873 -11.291,84.222 -12.39,100.026 -0.273,3.93 -5.263,25.23 -9.272,42.346 -5.13,21.908 -6.623,28.539 -6.623,30.266 -0.003,0.722 -0.438,4.583 -0.857,8.318 -1.78,15.822 -2.718,26.328 -2.878,33.234 -11.477,-9.893 -35.776,-32.907 -38.118,-37.629 -1.17,-6.391 -13.275,-20.985 -22.275,-20.985 -5.186,0 -32.898,-8.746 -42.908,-12.253 C 103.816,158.935 98.403,137.257 97.876,129.342 97.467,123.237 93.071,102.74 89.539,86.271 87.882,78.546 86.451,71.874 86.067,69.573 85.654,67.097 84.12,61.725 82.175,54.923 78.755,42.952 73.03,22.916 73.729,17.67 c 0.366,-2.744 4.836,-7.476 11.009,-8.652 5.206,-0.994 12.817,0.327 19.475,12.258 7.022,12.58 10.808,26.806 13.476,38.545 l -0.396,0.092 c -0.036,-0.136 -0.031,-0.249 -0.016,-0.347 l -0.039,0.062 c -0.196,0.341 -0.62,0.763 -1.041,1.154 -0.894,0.793 -1.982,1.532 -3.121,2.193 -2.291,1.326 -4.821,2.387 -7.434,3.145 -2.614,0.77 -5.34,1.208 -8.085,1.18 -2.729,-0.067 -5.524,-0.667 -7.911,-2.22 2.111,1.91 4.917,3.021 7.778,3.536 2.877,0.486 5.841,0.477 8.748,0.098 2.915,-0.372 5.792,-1.068 8.604,-2.15 1.34,-0.522 2.663,-1.131 3.981,-1.942 0.122,0.556 0.244,1.116 0.363,1.657 1.97,9.041 3.393,15.573 5.798,19.315 2.877,4.476 6.904,19.234 9.972,31.344 -1.21,1.34 -2.861,2.521 -4.665,3.474 -2.606,1.391 -5.536,2.389 -8.521,3.194 -2.994,0.799 -6.08,1.367 -9.194,1.785 -3.116,0.4 -6.264,0.683 -9.43,0.656 3.136,0.468 6.321,0.628 9.511,0.665 3.19,0.02 6.397,-0.114 9.609,-0.506 3.21,-0.403 6.438,-1.001 9.623,-2.158 1.465,-0.536 2.923,-1.2 4.331,-2.059 0.392,1.58 0.759,3.072 1.093,4.431 1.096,4.452 1.96,7.966 2.545,10.01 0.764,2.677 1.585,7.928 2.456,13.488 1.889,12.074 3.258,19.641 5.202,23.846 -2.877,1.558 -5.772,3.099 -8.686,4.587 -2.052,1.043 -4.114,2.068 -6.2,3.034 -1.043,0.482 -2.093,0.952 -3.156,1.382 -0.533,0.211 -1.069,0.419 -1.612,0.594 -0.544,0.175 -1.095,0.354 -1.674,0.344 0.571,0.12 1.171,0.049 1.745,-0.02 0.581,-0.071 1.154,-0.176 1.729,-0.283 1.142,-0.224 2.277,-0.49 3.406,-0.768 2.26,-0.558 4.499,-1.179 6.732,-1.82 3.622,-1.045 7.215,-2.154 10.811,-3.299 4.414,2.471 14.036,1.412 20.706,-1.27 1.458,-0.587 2.774,-1.245 3.952,-1.967 2.231,1.003 4.462,1.988 6.71,2.952 3.833,1.641 7.691,3.229 11.585,4.727 3.894,1.494 7.821,2.912 11.822,4.118 1.998,0.604 4.018,1.153 6.07,1.562 2.038,0.389 4.169,0.749 6.22,0.333 -2.075,0.193 -4.096,-0.382 -6.057,-0.973 -1.965,-0.615 -3.887,-1.365 -5.786,-2.167 -3.8,-1.604 -7.513,-3.41 -11.189,-5.291 -3.676,-1.883 -7.307,-3.852 -10.911,-5.872 -1.515,-0.85 -3.026,-1.717 -4.533,-2.587 1.485,-1.661 2.441,-3.522 2.822,-5.552 0.759,-4.048 6.242,-20.545 11.545,-36.501 0.061,-0.183 0.119,-0.359 0.181,-0.542 0.153,0.078 0.303,0.162 0.459,0.234 1.492,0.746 3.023,1.354 4.56,1.914 3.078,1.1 6.228,1.859 9.382,2.413 l 2.373,0.362 c 0.788,0.117 1.587,0.168 2.378,0.255 1.578,0.192 3.17,0.221 4.749,0.3 1.579,0.068 3.163,-0.001 4.734,0.004 1.575,-0.071 3.145,-0.182 4.707,-0.272 -1.566,-0.132 -3.128,-0.241 -4.68,-0.39 -1.55,-0.225 -3.1,-0.375 -4.63,-0.659 -1.528,-0.296 -3.058,-0.54 -4.554,-0.942 -0.75,-0.192 -1.505,-0.347 -2.244,-0.567 l -2.21,-0.664 c -2.917,-0.949 -5.758,-2.081 -8.42,-3.481 -1.323,-0.707 -2.622,-1.449 -3.83,-2.287 -0.427,-0.278 -0.831,-0.577 -1.228,-0.879 8.207,-24.746 12.086,-36.952 12.086,-40.14 0,-1.001 0.478,-3.723 1.216,-7.353 1.406,0.335 2.809,0.642 4.23,0.93 2.689,0.54 5.398,0.985 8.13,1.283 2.728,0.292 5.489,0.441 8.244,0.248 1.375,-0.114 2.753,-0.317 4.077,-0.722 1.313,-0.403 2.603,-1.036 3.521,-2.034 -1.072,0.832 -2.374,1.211 -3.666,1.387 -1.3,0.175 -2.62,0.151 -3.928,0.045 -2.622,-0.247 -5.207,-0.819 -7.754,-1.525 -2.546,-0.712 -5.056,-1.562 -7.531,-2.502 -1.456,-0.55 -2.915,-1.14 -4.348,-1.751 1.305,-6.049 2.974,-13.319 4.381,-19.444 2.718,-11.833 5.283,-23.011 5.758,-26.977 0.676,-5.635 4.62,-8.066 6.909,-9.013 4.656,-1.924 10.159,-1.201 14.024,1.844 4.475,3.523 6.259,9.8 5.024,17.675 m -21.745,238.638 c 0.883,4.413 -2.479,27.43 -5.181,45.925 -2.294,15.702 -4.462,30.532 -4.593,36.853 -0.242,11.607 -14.939,43.899 -21.999,54.847 -4.361,3.587 -10.128,5.597 -16.204,5.973 -6.269,0.437 -12.764,-0.569 -19.015,-2.412 -6.262,-1.857 -12.337,-4.551 -18.086,-7.844 -5.743,-3.311 -11.177,-7.219 -16.185,-11.658 4.597,4.86 9.708,9.275 15.239,13.149 5.541,3.856 11.511,7.172 17.882,9.689 6.366,2.496 13.177,4.228 20.296,4.37 3.55,0.061 7.181,-0.28 10.732,-1.266 0.093,-0.026 0.185,-0.057 0.278,-0.082 -0.999,6.022 -0.118,14.236 0.862,23.292 0.687,6.353 1.399,12.925 1.197,17.772 -0.173,4.139 -6.788,12.03 -21.182,20.327 -2.461,1.42 -4.984,2.746 -7.51,3.965 l -17.205,-70.036 11.129,72.752 c -8.319,3.433 -16.218,5.497 -21.716,5.497 -6.596,0 -17.199,-4.636 -28.129,-10.698 l -3.2,-34.016 -2.874,30.526 c -16.578,-9.835 -32.338,-21.59 -34.407,-24.047 -1.415,-2.44 -4.078,-17.346 -6.07,-31.563 3.955,0.77 7.883,1.286 11.843,1.682 5.692,0.547 11.409,0.746 17.113,0.512 5.696,-0.24 11.408,-0.914 16.913,-2.452 2.746,-0.773 5.44,-1.77 7.954,-3.102 2.511,-1.33 4.847,-3.012 6.737,-5.091 -2.099,1.87 -4.547,3.26 -7.109,4.291 -2.568,1.032 -5.255,1.716 -7.97,2.181 -5.44,0.921 -10.991,0.989 -16.491,0.643 -5.504,-0.35 -10.98,-1.123 -16.372,-2.221 -5.175,-1.064 -10.355,-2.4 -15.165,-4.151 -7.786,-5.493 -18.014,-28.647 -25.051,-48.686 -3.148,-8.966 -5.158,-32.041 -6.626,-48.891 -0.856,-9.841 -1.475,-16.951 -2.147,-19.864 -0.881,-3.815 -0.963,-11.202 -1.036,-17.72 -0.054,-4.846 -0.107,-9.145 -0.433,-12.307 4.558,-0.2 14.073,-0.73 17.108,-0.901 8.777,6.993 16.966,12.926 19.422,13.255 0.929,0.123 1.844,0.185 2.742,0.185 4.482,0 8.537,-1.529 11.622,-4.426 3.792,-3.563 5.824,-8.976 5.435,-14.483 -0.223,-3.141 -6.327,-13.111 -13.984,-24.175 14.872,19.202 19.499,22.821 21.703,23.108 1.448,0.188 2.836,0.282 4.162,0.282 5.506,0 9.914,-1.619 12.886,-4.767 3.465,-3.672 4.756,-9.134 3.863,-16.255 5.63,2.217 11.64,3.93 17.77,4.664 -0.352,0.592 -0.726,1.185 -1.133,1.776 -1.373,1.987 -2.903,3.957 -4.563,5.841 -3.285,3.795 -6.902,7.384 -10.705,10.772 -7.609,6.783 -15.974,12.784 -24.853,17.903 -4.436,2.571 -9.039,4.853 -13.761,6.869 -4.723,2.007 -9.563,3.784 -14.537,5.106 -4.967,1.332 -10.031,2.375 -15.17,2.915 -5.139,0.52 -10.327,0.615 -15.508,0.259 5.15,0.649 10.364,0.852 15.577,0.621 5.212,-0.251 10.397,-1.013 15.518,-2.08 5.13,-1.057 10.156,-2.584 15.089,-4.358 4.932,-1.782 9.771,-3.849 14.459,-6.222 9.387,-4.724 18.319,-10.387 26.594,-16.962 4.14,-3.287 8.116,-6.8 11.85,-10.648 1.88,-1.909 3.665,-3.942 5.368,-6.131 0.851,-1.096 1.663,-2.254 2.431,-3.53 0.224,-0.411 0.453,-0.794 0.673,-1.21 4.994,1.595 8.956,6.086 12.297,11.055 -0.767,0.38 -1.528,0.764 -2.296,1.158 -1.994,1.034 -3.951,2.118 -5.891,3.232 -3.872,2.236 -7.636,4.645 -11.289,7.205 -7.306,5.119 -14.13,10.936 -20.212,17.449 -3.012,3.285 -5.821,6.752 -8.379,10.393 -2.548,3.648 -4.752,7.526 -6.664,11.525 -1.918,4.001 -3.33,8.221 -4.442,12.483 -1.089,4.28 -1.597,8.668 -1.848,13.037 0.544,-4.35 1.341,-8.655 2.697,-12.797 1.379,-4.124 3.035,-8.151 5.166,-11.923 2.125,-3.769 4.513,-7.38 7.215,-10.745 2.712,-3.357 5.649,-6.52 8.766,-9.491 6.293,-5.888 13.239,-11.047 20.6,-15.499 3.217,-1.946 6.507,-3.766 9.857,-5.458 -0.148,0.139 -0.306,0.273 -0.451,0.413 -4.188,3.973 -7.691,8.435 -10.784,13.105 -6.146,9.372 -10.707,19.594 -13.889,30.19 -3.077,10.612 -4.773,21.707 -4.007,32.735 0.397,5.499 1.45,10.973 3.393,16.122 1.932,5.147 4.794,9.943 8.503,13.942 -3.489,-4.196 -6.047,-9.085 -7.668,-14.232 -1.633,-5.152 -2.369,-10.541 -2.464,-15.914 -0.166,-10.772 2.068,-21.453 5.601,-31.565 3.63,-10.085 8.588,-19.713 14.87,-28.243 3.149,-4.245 6.656,-8.215 10.565,-11.536 1.934,-1.693 4.028,-3.102 6.145,-4.33 0.968,-0.515 1.948,-0.954 2.929,-1.327 1.756,2.952 3.394,5.485 5.18,7.272 l 0.055,-0.052 0.367,8.44 1.142,1.85 0.054,0.034 0.259,0.172 0.575,0.404 1.184,0.871 2.381,1.786 4.78,3.605 c 3.192,2.4 6.401,4.785 9.645,7.122 3.246,2.334 6.524,4.631 9.888,6.802 1.685,1.08 3.39,2.133 5.146,3.1 0.877,0.482 1.767,0.945 2.688,1.343 0.921,0.384 1.863,0.788 2.867,0.857 -0.989,-0.156 -1.88,-0.633 -2.753,-1.09 -0.871,-0.47 -1.709,-1.004 -2.534,-1.555 -1.649,-1.103 -3.243,-2.289 -4.814,-3.502 -3.141,-2.436 -6.188,-4.992 -9.204,-7.585 -3.014,-2.596 -5.99,-5.235 -8.954,-7.896 l -4.445,-4 -2.238,-2.005 -1.143,-1.004 -0.334,-0.282 0.166,-3.819 17.146,6.28 11.115,3.979 5.58,1.934 c 1.869,0.609 3.721,1.309 5.649,1.718 -1.861,-0.62 -3.616,-1.518 -5.402,-2.333 l -5.317,-2.541 -10.587,-5.192 -15.594,-9.232 -2.225,-3.034 c -1.633,-1.633 -3.691,-5.068 -5.71,-8.529 -5.215,-8.942 -12.358,-21.188 -24.815,-22.475 l -0.27,-0.017 c -14.921,-0.393 -29.944,-8.32 -39.922,-14.9 -13.41,-8.844 -23.886,-25.049 -23.849,-36.894 0.013,-4.066 1.327,-7.178 3.893,-9.285 0.797,-0.064 1.654,-0.272 2.572,-0.554 -1.509,3.327 -1.973,7.517 0.395,11.463 4.272,7.119 20.61,15.067 29.566,15.067 1.116,0 2.117,-0.124 2.967,-0.388 7.604,-2.364 8.492,-10.68 9.111,-17.516 11.526,3.881 30.2,9.579 38.052,10.808 -1.161,1.145 -2.213,2.388 -3.134,3.719 -1.023,1.5 -1.881,3.108 -2.496,4.804 -0.62,1.693 -0.979,3.47 -1.068,5.249 0.236,-1.767 0.736,-3.483 1.476,-5.082 0.735,-1.6 1.695,-3.084 2.795,-4.442 1.11,-1.351 2.357,-2.583 3.714,-3.664 0.162,-0.128 0.329,-0.247 0.495,-0.37 0.231,0.016 0.448,0.026 0.64,0.026 5.03,0 14.92,11.922 15.323,15.147 0.088,0.697 0.214,1.668 2.278,4.383 -0.113,0.584 -0.289,1.157 -0.548,1.709 -0.365,0.789 -0.878,1.527 -1.487,2.203 -0.633,0.653 -1.344,1.261 -2.131,1.78 -1.564,1.06 -3.361,1.816 -5.199,2.431 1.909,-0.331 3.825,-0.806 5.632,-1.662 0.908,-0.418 1.774,-0.949 2.592,-1.575 0.8,-0.65 1.536,-1.415 2.129,-2.308 0.168,-0.248 0.319,-0.508 0.46,-0.772 3.004,3.584 8.496,9.357 18.61,18.976 7.05,6.706 18.737,17.425 23.481,20.909 0.143,0.445 0.302,0.83 0.483,1.154 l 0.363,0.643 0.577,0.445 c 0.066,0.051 6.636,5.183 8.105,12.539 m -204.2,-19.451 c 3.861,3.412 8.61,7.448 13.428,11.381 -4.843,0.267 -10.516,0.57 -13.46,0.698 -0.182,-2.641 -0.11,-7.667 0.032,-12.079 M 10.108,239.468 C 7.539,235.43 5.301,217.284 9.311,214.133 c 0.819,-0.644 1.626,-1.339 2.405,-2.012 4.964,-4.282 9.253,-7.981 19.716,-2.693 l 5.139,2.598 1.86,1.827 c 12.657,15.478 34.146,46.259 34.451,50.58 0.316,4.459 -1.304,8.818 -4.331,11.661 -2.956,2.778 -6.926,3.924 -11.456,3.319 -2.868,-0.609 -22.51,-17.089 -37.186,-30.477 l -1.226,-1.118 c -5.511,-5.028 -8.162,-7.769 -8.575,-8.35 m 65.585,-0.672 c 1.03,0.699 2.342,1.029 3.592,1.079 1.621,0.063 3.231,-0.253 4.725,-0.828 1.496,-0.573 2.889,-1.429 4.054,-2.553 0.549,-0.531 1.025,-1.147 1.399,-1.822 2.136,1.267 4.408,2.531 6.801,3.749 2.22,2.889 4.014,6.352 4.006,10.001 -0.006,2.252 -1.417,3.898 -2.6,4.884 -2.953,2.457 -7.75,3.676 -11.67,2.962 -5.686,-1.033 -11.171,-12.393 -11.392,-13.934 0.234,-1.327 0.61,-2.498 1.085,-3.538 m 12.988,-4.588 c -0.46,0.456 -0.975,0.852 -1.498,1.226 -1.18,0.806 -2.476,1.448 -3.81,1.967 -1.337,0.512 -2.721,0.915 -4.138,1.102 -1.101,0.13 -2.218,0.145 -3.353,-0.102 2.032,-4.075 5.675,-5.982 8.543,-6.872 1.338,0.878 2.758,1.776 4.256,2.679 m 13.024,10.293 c -0.429,-1.521 -1.078,-2.977 -1.861,-4.347 0.457,0.212 0.913,0.426 1.378,0.633 0.234,1.302 0.395,2.54 0.483,3.714 M 46.116,178.989 c 5.783,-1.779 10.798,-1.94 14.231,-1.62 -2.093,3.056 -3.183,6.833 -3.197,11.188 -0.043,13.68 10.715,31.235 25.294,41.618 -3.963,1.577 -8.614,4.899 -9.813,11.903 -0.323,1.89 6.021,14.879 13.012,16.151 0.848,0.153 1.734,0.227 2.634,0.227 3.831,0 7.936,-1.345 10.666,-3.619 0.651,-0.543 1.199,-1.125 1.663,-1.737 -0.507,1.186 -1.17,2.227 -2.002,3.109 -3.637,3.852 -9.634,3.981 -13.995,3.413 -2.063,-0.52 -10.872,-8.832 -46.685,-58.666 -1.042,-1.451 -1.888,-2.628 -2.497,-3.469 -0.652,-13.242 5.567,-16.922 10.689,-18.498 m 38.371,-2.149 c 3.43,1.784 10.6,5.306 16.79,7.034 -0.923,2.687 -0.985,5.483 -0.089,8.034 0.965,2.743 2.937,4.929 5.517,6.229 -0.934,1.576 -2.242,2.78 -4.149,3.372 -6.163,1.921 -24.513,-6.546 -28.459,-13.123 -1.784,-2.973 -1.155,-5.963 -0.314,-7.948 0.652,-1.535 1.515,-2.679 2.249,-3.428 2.934,-0.826 6.183,-1.35 8.455,-0.17 m 24.791,9.348 -0.042,0.467 c -0.319,3.515 -0.648,7.088 -1.76,9.897 -2.163,-1.099 -3.814,-2.932 -4.622,-5.23 -0.777,-2.211 -0.703,-4.653 0.136,-7.009 0.775,0.176 1.52,0.307 2.237,0.403 1.043,0.403 2.42,0.902 4.051,1.472 M 244.945,12.555 C 239.106,7.957 230.83,6.849 223.854,9.734 c -6.324,2.615 -10.413,7.972 -11.219,14.697 -0.431,3.592 -3.074,15.104 -5.63,26.236 -4.2,18.29 -6.751,29.637 -6.749,32.979 -0.174,3.198 -7.851,26.293 -13.455,43.155 -5.869,17.658 -10.938,32.907 -11.784,37.426 -0.451,2.401 -3.501,4.152 -5.281,4.982 -6.297,2.939 -13.925,2.993 -15.571,2.261 -1.784,-2.457 -3.833,-15.553 -4.942,-22.643 -0.944,-6.032 -1.758,-11.241 -2.644,-14.337 -0.548,-1.917 -1.44,-5.549 -2.475,-9.756 -4.507,-18.32 -9.243,-36.727 -13.246,-42.957 -1.718,-2.672 -3.165,-9.312 -4.84,-17.001 C 123.164,51.678 119.256,33.74 110.378,17.836 101.208,1.406 89.549,0.914 83.417,2.082 c -8.335,1.589 -15.82,8.162 -16.686,14.655 -0.826,6.2 3.432,21.841 8.656,40.126 1.808,6.327 3.369,11.789 3.716,13.871 0.41,2.461 1.788,8.885 3.533,17.017 3.114,14.522 7.82,36.467 8.194,42.061 0.594,8.912 5.98,29.704 11.321,46.976 -3.865,-1.201 -8.974,-3.386 -14.407,-6.212 -5.921,-3.078 -12.878,-0.705 -17.48,0.866 -0.66,0.225 -1.49,0.508 -2.072,0.677 -4.167,-2.137 -13.922,-3.026 -24.152,0.123 -11.839,3.642 -17.017,13.204 -15.44,28.46 -10.8,-3.153 -16.877,2.089 -21.496,6.074 -0.752,0.648 -1.462,1.262 -2.155,1.806 -8.385,6.588 -4.336,29.115 -0.797,34.676 0.802,1.261 3.676,4.17 8.552,8.658 -0.184,4.388 -0.515,14.407 0.134,17.768 0.491,2.55 0.552,7.993 0.611,13.257 0.08,7.211 0.163,14.668 1.215,19.227 0.561,2.431 1.226,10.058 1.995,18.889 1.582,18.183 3.553,40.812 6.997,50.616 4.483,12.77 15.807,42.527 26.779,51.465 1.484,11.191 4.824,34.087 7.803,38.258 3.226,4.518 52.945,41.192 74.357,41.192 19.94,0 62.818,-22.001 63.538,-39.271 0.224,-5.375 -0.516,-12.212 -1.232,-18.825 -0.999,-9.236 -2.369,-21.885 0.317,-24.839 6.747,-7.422 25.61,-47.331 25.923,-62.313 0.123,-5.881 2.258,-20.501 4.519,-35.979 3.771,-25.806 6.164,-43.111 5.12,-48.331 -1.653,-8.27 -7.658,-14.128 -9.903,-16.072 -1.242,-5.304 1.631,-30.846 2.597,-39.436 0.611,-5.429 0.889,-7.944 0.903,-9.029 0.18,-2.021 3.503,-16.208 6.436,-28.734 5.345,-22.817 9.15,-39.293 9.441,-43.465 1.09,-15.679 7.502,-68.7 12.321,-99.423 2.224,-14.178 -3.826,-21.32 -7.63,-24.316"
       fill="#0b0b09"
       id="path1"
       style="fill:#4ecac1;fill-opacity:1" />
  </g>
  <g
     id="layer1"
     transform="matrix(0.21885228,0.08842205,-0.10010823,0.24777656,18.779427,-113.23787)"
     style="fill:#4ecac1;stroke:#000000;stroke-width:19.9081;stroke-linecap:round;stroke-linejoin:round;fill-opacity:1">
    <g
       id="path5253"
       style="fill:#4ecac1;fill-opacity:1">
      <path
         style="display:inline;fill-rule:evenodd;stroke:none;fill:#4ecac1;fill-opacity:1"
         d="m 820.95508,393.12109 c -7.01496,0.20063 -14.10172,1.04807 -21.17774,2.67383 -0.0156,0.003 -0.0313,0.007 -0.0469,0.01 -16.99115,3.99098 -32.99438,12.46392 -46.00195,24.68359 l -0.002,0.002 c -12.73942,11.97801 -22.35562,27.33267 -27.5039,44.41211 l 0,0.004 c -2.51668,8.36047 -3.93303,17.05494 -4.21875,25.82227 -6.4042,-5.83881 -13.09677,-11.37025 -20.07227,-16.53711 -0.13176,-0.0977 -0.26591,-0.19214 -0.40234,-0.28321 -1.39583,-0.93082 -2.80142,-1.84892 -4.2168,-2.7539 -27.24758,-17.42224 -57.4079,-29.5901 -88.46289,-35.67969 -24.38756,-4.82889 -50.18314,-5.9659 -75.05664,0.21094 -0.0104,0.003 -0.0208,0.005 -0.0312,0.008 -23.86861,6.00963 -45.29961,18.52823 -62.36524,34.92773 v 0.002 c -17.52022,16.84145 -30.35671,37.47638 -38.41211,59.28515 l -0.004,0.0137 c -8.45531,22.99453 -11.57359,46.89291 -10.75586,70.08399 0.81788,23.19071 5.56271,45.70825 13.05664,66.42187 8.1588,22.58555 19.35105,43.13547 32.26367,61.58399 12.91373,18.45011 27.56048,34.82098 42.90625,49.16211 17.70977,16.55602 36.29692,30.51234 54.81836,42.53906 18.52247,12.02637 37.01739,22.14648 54.82031,30.88477 32.40846,15.91906 62.94618,27.45882 90.15821,35.9375 27.21088,8.47759 51.13085,13.91631 70.75586,17.55664 28.16711,3.39093 39.15084,3.23051 56.09667,1.74245 15.79329,-1.38686 28.34306,-3.99696 28.36805,-4.03242 -26.60462,-3.21688 -38.31681,-5.037 -80.17028,-16.31598 -22.51552,-6.58014 -40.90963,-13.27412 -67.35881,-22.86293 -25.69622,-9.31583 -55.13559,-20.13209 -86,-35.77539 l 0.004,0 c -16.95501,-8.60057 -34.40541,-18.41358 -51.72656,-29.90625 -17.3213,-11.49277 -34.48055,-24.64146 -50.64258,-40.03516 -13.96477,-13.30449 -27.19838,-28.34531 -38.75,-45.07617 -11.55075,-16.7296 -21.40604,-35.12704 -28.44727,-55.07813 l -0.002,-0.004 c -6.40133,-18.17199 -10.41582,-37.8307 -11.05469,-57.72266 -0.63918,-19.89302 2.09295,-39.97562 9.20117,-58.85742 l 0.006,-0.0156 c 6.7174,-17.92767 17.30265,-34.77188 31.33594,-48.15039 l 0.002,-0.002 c 13.62144,-12.98985 30.70009,-22.87622 49.11133,-27.44141 0.0111,-0.003 0.0221,-0.007 0.0332,-0.01 19.18191,-4.82841 40.64243,-3.95053 62.08789,0.22461 27.25547,5.36565 53.96656,16.1506 78.10742,31.58008 1.25441,0.8018 2.49973,1.6153 3.73633,2.43945 0.13776,0.0914 0.27778,0.17928 0.41992,0.26367 18.49592,11.03798 35.16648,24.41967 49.51562,39.43359 5.18751,8.17017 11.5171,15.7715 19.11133,22.3418 8.55133,7.39137 20.8506,-2.92661 15.05859,-12.63281 -2.18445,-3.65806 -4.46651,-7.2558 -6.83593,-10.79883 -4.22448,-7.98426 -7.1886,-16.89222 -8.42578,-26.125 -0.0442,-0.329 -0.10482,-0.65558 -0.18164,-0.97852 -2.88276,-12.13302 -2.45557,-25.11591 1.05468,-36.86132 l 0,-0.006 c 3.57161,-11.9709 10.4394,-23.00725 19.34766,-31.42578 l 0.004,-0.002 c 9.0936,-8.60141 20.57109,-14.73139 32.49218,-17.57226 0.0176,-0.004 0.0351,-0.008 0.0527,-0.0117 9.95213,-2.42864 20.45421,-2.5995 31.05468,-1.10352 10.59727,1.49562 21.24174,4.65968 31.33594,8.82032 0.003,10e-4 0.007,0.003 0.01,0.004 16.78307,6.98331 32.08445,16.71983 45.51758,28.22852 13.44071,11.51614 24.99924,24.79841 34.41015,38.95312 10.40577,15.64813 18.28323,32.42064 23.96875,49.46485 5.68515,17.04423 9.17344,34.34868 10.82617,51.23046 1.25611,12.8298 1.47716,25.48057 0.98243,37.8418 -0.49474,12.36119 -1.70325,24.4186 -3.35743,36.08203 -2.55818,18.00423 -6.20486,34.96486 -10.53125,50.76953 v 0.002 c -4.32619,15.80539 -7.83571,28.10014 -12.52815,42.90501 -4.96,14.21942 -9.28483,23.56016 -13.88817,34.95167 -4.63873,11.4791 -16.20409,36.13016 -16.20409,36.13016 -12.67576,24.12773 -22.14204,38.80741 -40.15498,61.7925 h 0.002 c 10.21804,-5.27397 28.97111,-16.78597 38.66601,-29.65625 l 0,-0.002 c 4.97764,-6.59924 10.52005,-14.37596 16.375,-23.38672 l 0.002,-0.002 c 5.85401,-9.01043 12.02606,-19.26455 18.21679,-30.80859 6.19151,-11.54473 12.40306,-24.38585 18.28711,-38.53321 5.88386,-14.14786 11.44336,-29.6103 16.28125,-46.34179 4.83718,-16.73049 8.95458,-34.73707 11.91208,-53.90235 v -0.004 c 1.9159,-12.39722 3.366,-25.34855 4.041,-38.77149 0.6751,-13.42416 0.5764,-27.33585 -0.6758,-41.61133 -1.6527,-18.83818 -5.3782,-38.21841 -11.63275,-57.45312 -6.25471,-19.23486 -15.04454,-38.3381 -26.83008,-56.36328 C 961.94494,467.29951 948.7606,451.94813 933.27148,438.53906 917.78936,425.135 899.99427,413.66714 880.21484,405.29492 l -0.0156,-0.006 c -11.96434,-5.10222 -24.93827,-9.05435 -38.50195,-10.96679 -6.78474,-0.95658 -13.72723,-1.4018 -20.74219,-1.20118 z m -19.06641,11.94336 c -0.0106,0.003 -0.0207,0.007 -0.0312,0.01 -0.007,0.002 -0.0144,0.002 -0.0215,0.004 z"
         id="path3"
         sodipodi:nodetypes="cccsscccscccscccccccscccccsccsccscscccccsscccsccccccscccccccscccccssccccsccccccccccccscsccccscccscc" />
    </g>
  </g>
</svg>
